<svg width="837" height="894" version="1.1" xmlns="http://www.w3.org/2000/svg">
    <a href="administrativeData/dccSoftware.html">
        <rect x="472" y="25" width="89" height="22" style="fill:rgb(255,255,255);stroke:rgb(0,0,0);stroke-width:1"/>
        <text x="516.5" y="36"
              style="font-family:Arial;font-size:8pt;fill:rgb(0,0,0);font-weight:bold;text-anchor:middle;dominant-baseline:central">
            dccSoftware
        </text>
    </a>
    <rect x="556" y="31" width="10" height="10" style="fill:rgb(255,255,255);stroke:rgb(0,0,0);stroke-width:1"/>
    <line x1="558" y1="36" x2="564" y2="36" style="stroke:rgb(0,0,0);stroke-width:1"/>
    <line x1="561" y1="33" x2="561" y2="39" style="stroke:rgb(0,0,0);stroke-width:1"/>
    <a href="administrativeData/coreData.html">
        <rect x="472" y="77" width="72" height="22" style="fill:rgb(255,255,255);stroke:rgb(0,0,0);stroke-width:1"/>
        <text x="508" y="88"
              style="font-family:Arial;font-size:8pt;fill:rgb(0,0,0);font-weight:bold;text-anchor:middle;dominant-baseline:central">
            coreData
        </text>
    </a>
    <rect x="539" y="83" width="10" height="10" style="fill:rgb(255,255,255);stroke:rgb(0,0,0);stroke-width:1"/>
    <line x1="541" y1="88" x2="547" y2="88" style="stroke:rgb(0,0,0);stroke-width:1"/>
    <line x1="544" y1="85" x2="544" y2="91" style="stroke:rgb(0,0,0);stroke-width:1"/>
    <a href="administrativeData/items.html">
        <rect x="472" y="129" width="55" height="22" style="fill:rgb(255,255,255);stroke:rgb(0,0,0);stroke-width:1"/>
        <text x="499.5" y="140"
              style="font-family:Arial;font-size:8pt;fill:rgb(0,0,0);font-weight:bold;text-anchor:middle;dominant-baseline:central">
            items
        </text>
    </a>
    <rect x="522" y="135" width="10" height="10" style="fill:rgb(255,255,255);stroke:rgb(0,0,0);stroke-width:1"/>
    <line x1="524" y1="140" x2="530" y2="140" style="stroke:rgb(0,0,0);stroke-width:1"/>
    <line x1="527" y1="137" x2="527" y2="143" style="stroke:rgb(0,0,0);stroke-width:1"/>
    <a href="administrativeData/calibrationLaboratory.html">
        <rect x="472" y="181" width="134" height="22" style="fill:rgb(255,255,255);stroke:rgb(0,0,0);stroke-width:1"/>
        <text x="539" y="192"
              style="font-family:Arial;font-size:8pt;fill:rgb(0,0,0);font-weight:bold;text-anchor:middle;dominant-baseline:central">
            calibrationLaboratory
        </text>
    </a>
    <rect x="601" y="187" width="10" height="10" style="fill:rgb(255,255,255);stroke:rgb(0,0,0);stroke-width:1"/>
    <line x1="603" y1="192" x2="609" y2="192" style="stroke:rgb(0,0,0);stroke-width:1"/>
    <line x1="606" y1="189" x2="606" y2="195" style="stroke:rgb(0,0,0);stroke-width:1"/>
    <a href="administrativeData/respPerson.html">
        <rect x="472" y="233" width="90" height="22" style="fill:rgb(255,255,255);stroke:rgb(0,0,0);stroke-width:1"/>
        <text x="517" y="244"
              style="font-family:Arial;font-size:8pt;fill:rgb(0,0,0);font-weight:bold;text-anchor:middle;dominant-baseline:central">
            respPersons
        </text>
    </a>
    <rect x="557" y="239" width="10" height="10" style="fill:rgb(255,255,255);stroke:rgb(0,0,0);stroke-width:1"/>
    <line x1="559" y1="244" x2="565" y2="244" style="stroke:rgb(0,0,0);stroke-width:1"/>
    <line x1="562" y1="241" x2="562" y2="247" style="stroke:rgb(0,0,0);stroke-width:1"/>
    <a href="administrativeData/customer.html">
        <rect x="472" y="285" width="74" height="22" style="fill:rgb(255,255,255);stroke:rgb(0,0,0);stroke-width:1"/>
        <text x="509" y="296"
              style="font-family:Arial;font-size:8pt;fill:rgb(0,0,0);font-weight:bold;text-anchor:middle;dominant-baseline:central">
            customer
        </text>
    </a>
    <rect x="541" y="291" width="10" height="10" style="fill:rgb(255,255,255);stroke:rgb(0,0,0);stroke-width:1"/>
    <line x1="543" y1="296" x2="549" y2="296" style="stroke:rgb(0,0,0);stroke-width:1"/>
    <line x1="546" y1="293" x2="546" y2="299" style="stroke:rgb(0,0,0);stroke-width:1"/>
    <a href="administrativeData/statements.html">
        <rect x="472" y="337" width="82" height="22"
              style="fill:rgb(255,255,255);stroke:rgb(0,0,0);stroke-width:1;stroke-dasharray:4,1"/>
        <text x="513" y="348"
              style="font-family:Arial;font-size:8pt;fill:rgb(0,0,0);font-weight:bold;text-anchor:middle;dominant-baseline:central">
            statements
        </text>
    </a>
    <rect x="549" y="343" width="10" height="10" style="fill:rgb(255,255,255);stroke:rgb(0,0,0);stroke-width:1"/>
    <line x1="551" y1="348" x2="557" y2="348" style="stroke:rgb(0,0,0);stroke-width:1"/>
    <line x1="554" y1="345" x2="554" y2="351" style="stroke:rgb(0,0,0);stroke-width:1"/>
    <line x1="462" y1="36" x2="472" y2="36" style="stroke:rgb(0,0,0);stroke-width:1;stroke-linecap:round"/>
    <line x1="462" y1="88" x2="472" y2="88" style="stroke:rgb(0,0,0);stroke-width:1;stroke-linecap:round"/>
    <line x1="462" y1="140" x2="472" y2="140" style="stroke:rgb(0,0,0);stroke-width:1;stroke-linecap:round"/>
    <line x1="462" y1="192" x2="472" y2="192" style="stroke:rgb(0,0,0);stroke-width:1;stroke-linecap:round"/>
    <line x1="462" y1="244" x2="472" y2="244" style="stroke:rgb(0,0,0);stroke-width:1;stroke-linecap:round"/>
    <line x1="462" y1="296" x2="472" y2="296" style="stroke:rgb(0,0,0);stroke-width:1;stroke-linecap:round"/>
    <line x1="462" y1="348" x2="472" y2="348" style="stroke:rgb(0,0,0);stroke-width:1;stroke-linecap:round"/>
    <line x1="462" y1="36" x2="462" y2="348" style="stroke:rgb(0,0,0);stroke-width:1;stroke-linecap:round"/>
    <line x1="452" y1="192" x2="462" y2="192" style="stroke:rgb(0,0,0);stroke-width:1;stroke-linecap:round"/>
    <path d="M418 182 L441 182 L447 188 L447 196 L441 202 L418 202 L412 196 L412 188 Z"
          style="fill:rgb(255,255,255);stroke:rgb(0,0,0);stroke-width:1"/>
    <line x1="425" y1="188" x2="421" y2="188" style="stroke:rgb(0,0,0);stroke-width:1"/>
    <line x1="425" y1="192" x2="417" y2="192" style="stroke:rgb(0,0,0);stroke-width:1"/>
    <line x1="425" y1="196" x2="421" y2="196" style="stroke:rgb(0,0,0);stroke-width:1"/>
    <line x1="421" y1="188" x2="421" y2="196" style="stroke:rgb(0,0,0);stroke-width:1"/>
    <line x1="433" y1="188" x2="437" y2="188" style="stroke:rgb(0,0,0);stroke-width:1"/>
    <line x1="433" y1="192" x2="441" y2="192" style="stroke:rgb(0,0,0);stroke-width:1"/>
    <line x1="433" y1="196" x2="437" y2="196" style="stroke:rgb(0,0,0);stroke-width:1"/>
    <line x1="437" y1="188" x2="437" y2="196" style="stroke:rgb(0,0,0);stroke-width:1"/>
    <ellipse cx="429" cy="188" rx="2" ry="2" style="rgb(0,0,0)"/>
    <ellipse cx="429" cy="192" rx="2" ry="2" style="rgb(0,0,0)"/>
    <ellipse cx="429" cy="196" rx="2" ry="2" style="rgb(0,0,0)"/>
    <rect x="442" y="187" width="10" height="10" style="fill:rgb(255,255,255);stroke:rgb(0,0,0);stroke-width:1"/>
    <line x1="444" y1="192" x2="450" y2="192" style="stroke:rgb(0,0,0);stroke-width:1"/>
    <line x1="392" y1="192" x2="412" y2="192" style="stroke:rgb(0,0,0);stroke-width:1;stroke-linecap:round"/>
    <a href="administrativeData/index.html">
        <rect x="267" y="181" width="120" height="22" style="fill:rgb(255,255,255);stroke:rgb(0,0,0);stroke-width:1"/>
        <text x="327" y="192"
              style="font-family:Arial;font-size:8pt;fill:rgb(0,0,0);font-weight:bold;text-anchor:middle;dominant-baseline:central">
            administrativeData
        </text>
    </a>
    <rect x="382" y="187" width="10" height="10" style="fill:rgb(255,255,255);stroke:rgb(0,0,0);stroke-width:1"/>
    <line x1="384" y1="192" x2="390" y2="192" style="stroke:rgb(0,0,0);stroke-width:1"/>
    <a href="measurementResult/usedMethods.html">
        <rect x="695" y="389" width="94" height="22"
              style="fill:rgb(255,255,255);stroke:rgb(0,0,0);stroke-width:1;stroke-dasharray:4,1"/>
        <text x="742" y="400"
              style="font-family:Arial;font-size:8pt;fill:rgb(0,0,0);font-weight:bold;text-anchor:middle;dominant-baseline:central">
            usedMethods
        </text>
    </a>
    <rect x="784" y="395" width="10" height="10" style="fill:rgb(255,255,255);stroke:rgb(0,0,0);stroke-width:1"/>
    <line x1="786" y1="400" x2="792" y2="400" style="stroke:rgb(0,0,0);stroke-width:1"/>
    <line x1="789" y1="397" x2="789" y2="403" style="stroke:rgb(0,0,0);stroke-width:1"/>
    <a href="measurementResult/usedSoftware.html">
        <rect x="695" y="441" width="95" height="22"
              style="fill:rgb(255,255,255);stroke:rgb(0,0,0);stroke-width:1;stroke-dasharray:4,1"/>
        <text x="742.5" y="452"
              style="font-family:Arial;font-size:8pt;fill:rgb(0,0,0);font-weight:bold;text-anchor:middle;dominant-baseline:central">
            usedSoftware
        </text>
    </a>
    <rect x="785" y="447" width="10" height="10" style="fill:rgb(255,255,255);stroke:rgb(0,0,0);stroke-width:1"/>
    <line x1="787" y1="452" x2="793" y2="452" style="stroke:rgb(0,0,0);stroke-width:1"/>
    <line x1="790" y1="449" x2="790" y2="455" style="stroke:rgb(0,0,0);stroke-width:1"/>
    <a href="measurementResult/influenceConditions.html">
        <rect x="695" y="493" width="127" height="22" style="fill:rgb(255,255,255);stroke:rgb(0,0,0);stroke-width:1"/>
        <text x="758.5" y="504"
              style="font-family:Arial;font-size:8pt;fill:rgb(0,0,0);font-weight:bold;text-anchor:middle;dominant-baseline:central">
            influenceConditions
        </text>
    </a>
    <rect x="817" y="499" width="10" height="10" style="fill:rgb(255,255,255);stroke:rgb(0,0,0);stroke-width:1"/>
    <line x1="819" y1="504" x2="825" y2="504" style="stroke:rgb(0,0,0);stroke-width:1"/>
    <line x1="822" y1="501" x2="822" y2="507" style="stroke:rgb(0,0,0);stroke-width:1"/>
    <a href="measurementResult/results.html">
        <rect x="695" y="545" width="62" height="22" style="fill:rgb(255,255,255);stroke:rgb(0,0,0);stroke-width:1"/>
        <text x="726" y="556"
              style="font-family:Arial;font-size:8pt;fill:rgb(0,0,0);font-weight:bold;text-anchor:middle;dominant-baseline:central">
            results
        </text>
    </a>
    <rect x="752" y="551" width="10" height="10" style="fill:rgb(255,255,255);stroke:rgb(0,0,0);stroke-width:1"/>
    <line x1="754" y1="556" x2="760" y2="556" style="stroke:rgb(0,0,0);stroke-width:1"/>
    <line x1="757" y1="553" x2="757" y2="559" style="stroke:rgb(0,0,0);stroke-width:1"/>
    <line x1="685" y1="400" x2="695" y2="400" style="stroke:rgb(0,0,0);stroke-width:1;stroke-linecap:round"/>
    <line x1="685" y1="452" x2="695" y2="452" style="stroke:rgb(0,0,0);stroke-width:1;stroke-linecap:round"/>
    <line x1="685" y1="504" x2="695" y2="504" style="stroke:rgb(0,0,0);stroke-width:1;stroke-linecap:round"/>
    <line x1="685" y1="556" x2="695" y2="556" style="stroke:rgb(0,0,0);stroke-width:1;stroke-linecap:round"/>
    <line x1="685" y1="400" x2="685" y2="556" style="stroke:rgb(0,0,0);stroke-width:1;stroke-linecap:round"/>
    <line x1="675" y1="478" x2="685" y2="478" style="stroke:rgb(0,0,0);stroke-width:1;stroke-linecap:round"/>
    <path d="M641 468 L664 468 L670 474 L670 482 L664 488 L641 488 L635 482 L635 474 Z"
          style="fill:rgb(255,255,255);stroke:rgb(0,0,0);stroke-width:1"/>
    <line x1="638" y1="478" x2="667" y2="478" style="stroke:rgb(0,0,0);stroke-width:1"/>
    <ellipse cx="647" cy="478" rx="2" ry="2" style="rgb(0,0,0)"/>
    <ellipse cx="652" cy="478" rx="2" ry="2" style="rgb(0,0,0)"/>
    <ellipse cx="657" cy="478" rx="2" ry="2" style="rgb(0,0,0)"/>
    <rect x="665" y="473" width="10" height="10" style="fill:rgb(255,255,255);stroke:rgb(0,0,0);stroke-width:1"/>
    <line x1="667" y1="478" x2="673" y2="478" style="stroke:rgb(0,0,0);stroke-width:1"/>
    <line x1="615" y1="478" x2="635" y2="478" style="stroke:rgb(0,0,0);stroke-width:1;stroke-linecap:round"/>
    <a href="administrativeData/dccSoftware.html">
        <rect x="487" y="470" width="126" height="22" style="fill:rgb(255,255,255);stroke:rgb(0,0,0);stroke-width:1"/>
        <rect x="484" y="467" width="126" height="22" style="fill:rgb(255,255,255);stroke:rgb(0,0,0);stroke-width:1"/>
        <text x="547" y="478"
              style="font-family:Arial;font-size:8pt;fill:rgb(0,0,0);font-weight:bold;text-anchor:middle;dominant-baseline:central">
            measurementResult
        </text>
    </a>
    <text x="605" y="499"
          style="font-family:Arial;font-size:7.2pt;fill:rgb(0,0,0);text-anchor:end;dominant-baseline:central">1..∞
    </text>
    <rect x="605" y="473" width="10" height="10" style="fill:rgb(255,255,255);stroke:rgb(0,0,0);stroke-width:1"/>
    <line x1="607" y1="478" x2="613" y2="478" style="stroke:rgb(0,0,0);stroke-width:1"/>
    <line x1="464" y1="478" x2="484" y2="478" style="stroke:rgb(0,0,0);stroke-width:1;stroke-linecap:round"/>
    <path d="M430 468 L453 468 L459 474 L459 482 L453 488 L430 488 L424 482 L424 474 Z"
          style="fill:rgb(255,255,255);stroke:rgb(0,0,0);stroke-width:1"/>
    <line x1="427" y1="478" x2="456" y2="478" style="stroke:rgb(0,0,0);stroke-width:1"/>
    <ellipse cx="436" cy="478" rx="2" ry="2" style="rgb(0,0,0)"/>
    <ellipse cx="441" cy="478" rx="2" ry="2" style="rgb(0,0,0)"/>
    <ellipse cx="446" cy="478" rx="2" ry="2" style="rgb(0,0,0)"/>
    <rect x="454" y="473" width="10" height="10" style="fill:rgb(255,255,255);stroke:rgb(0,0,0);stroke-width:1"/>
    <line x1="456" y1="478" x2="462" y2="478" style="stroke:rgb(0,0,0);stroke-width:1"/>
    <line x1="404" y1="478" x2="424" y2="478" style="stroke:rgb(0,0,0);stroke-width:1;stroke-linecap:round"/>
    <a href="administrativeData/dccSoftware.html">
        <rect x="267" y="467" width="132" height="22" style="fill:rgb(255,255,255);stroke:rgb(0,0,0);stroke-width:1"/>
        <text x="333" y="478"
              style="font-family:Arial;font-size:8pt;fill:rgb(0,0,0);font-weight:bold;text-anchor:middle;dominant-baseline:central">
            measurementResults
        </text>
    </a>
    <rect x="394" y="473" width="10" height="10" style="fill:rgb(255,255,255);stroke:rgb(0,0,0);stroke-width:1"/>
    <line x1="396" y1="478" x2="402" y2="478" style="stroke:rgb(0,0,0);stroke-width:1"/>
    <a href="administrativeData/dccSoftware.html">
        <rect x="267" y="597" width="74" height="22"
              style="fill:rgb(255,255,255);stroke:rgb(0,0,0);stroke-width:1;stroke-dasharray:4,1"/>
        <text x="304" y="608"
              style="font-family:Arial;font-size:8pt;fill:rgb(0,0,0);font-weight:bold;text-anchor:middle;dominant-baseline:central">
            comments
        </text>
    </a>
    <line x1="269" y1="599" x2="277" y2="599" style="stroke:rgb(0,0,0);stroke-width:1"/>
    <line x1="269" y1="601" x2="275" y2="601" style="stroke:rgb(0,0,0);stroke-width:1"/>
    <line x1="269" y1="603" x2="275" y2="603" style="stroke:rgb(0,0,0);stroke-width:1"/>
    <line x1="269" y1="605" x2="275" y2="605" style="stroke:rgb(0,0,0);stroke-width:1"/>
    <a href="administrativeData/dccSoftware.html">
        <rect x="429" y="649" width="55" height="22" style="fill:rgb(255,255,255);stroke:rgb(0,0,0);stroke-width:1"/>
        <text x="456.5" y="660"
              style="font-family:Arial;font-size:8pt;fill:rgb(0,0,0);font-weight:bold;text-anchor:middle;dominant-baseline:central">
            name
        </text>
    </a>
    <rect x="479" y="655" width="10" height="10" style="fill:rgb(255,255,255);stroke:rgb(0,0,0);stroke-width:1"/>
    <line x1="481" y1="660" x2="487" y2="660" style="stroke:rgb(0,0,0);stroke-width:1"/>
    <line x1="484" y1="657" x2="484" y2="663" style="stroke:rgb(0,0,0);stroke-width:1"/>
    <a href="administrativeData/dccSoftware.html">
        <rect x="429" y="701" width="83" height="22" style="fill:rgb(255,255,255);stroke:rgb(0,0,0);stroke-width:1"/>
        <text x="470.5" y="712"
              style="font-family:Arial;font-size:8pt;fill:rgb(0,0,0);font-weight:bold;text-anchor:middle;dominant-baseline:central">
            description
        </text>
    </a>
    <rect x="507" y="707" width="10" height="10" style="fill:rgb(255,255,255);stroke:rgb(0,0,0);stroke-width:1"/>
    <line x1="509" y1="712" x2="515" y2="712" style="stroke:rgb(0,0,0);stroke-width:1"/>
    <line x1="512" y1="709" x2="512" y2="715" style="stroke:rgb(0,0,0);stroke-width:1"/>
    <a href="administrativeData/dccSoftware.html">
        <rect x="429" y="753" width="66" height="22" style="fill:rgb(255,255,255);stroke:rgb(0,0,0);stroke-width:1"/>
        <text x="462" y="764"
              style="font-family:Arial;font-size:8pt;fill:rgb(0,0,0);font-weight:bold;text-anchor:middle;dominant-baseline:central">
            fileName
        </text>
    </a>
    <line x1="431" y1="755" x2="439" y2="755" style="stroke:rgb(0,0,0);stroke-width:1"/>
    <line x1="431" y1="757" x2="437" y2="757" style="stroke:rgb(0,0,0);stroke-width:1"/>
    <line x1="431" y1="759" x2="437" y2="759" style="stroke:rgb(0,0,0);stroke-width:1"/>
    <line x1="431" y1="761" x2="437" y2="761" style="stroke:rgb(0,0,0);stroke-width:1"/>
    <a href="administrativeData/dccSoftware.html">
        <rect x="429" y="805" width="74" height="22" style="fill:rgb(255,255,255);stroke:rgb(0,0,0);stroke-width:1"/>
        <text x="466" y="816"
              style="font-family:Arial;font-size:8pt;fill:rgb(0,0,0);font-weight:bold;text-anchor:middle;dominant-baseline:central">
            mimeType
        </text>
    </a>
    <line x1="431" y1="807" x2="439" y2="807" style="stroke:rgb(0,0,0);stroke-width:1"/>
    <line x1="431" y1="809" x2="437" y2="809" style="stroke:rgb(0,0,0);stroke-width:1"/>
    <line x1="431" y1="811" x2="437" y2="811" style="stroke:rgb(0,0,0);stroke-width:1"/>
    <line x1="431" y1="813" x2="437" y2="813" style="stroke:rgb(0,0,0);stroke-width:1"/>
    <a href="administrativeData/dccSoftware.html">
        <rect x="429" y="857" width="44" height="22" style="fill:rgb(255,255,255);stroke:rgb(0,0,0);stroke-width:1"/>
        <text x="451" y="868"
              style="font-family:Arial;font-size:8pt;fill:rgb(0,0,0);font-weight:bold;text-anchor:middle;dominant-baseline:central">
            data
        </text>
    </a>
    <line x1="431" y1="859" x2="439" y2="859" style="stroke:rgb(0,0,0);stroke-width:1"/>
    <line x1="431" y1="861" x2="437" y2="861" style="stroke:rgb(0,0,0);stroke-width:1"/>
    <line x1="431" y1="863" x2="437" y2="863" style="stroke:rgb(0,0,0);stroke-width:1"/>
    <line x1="431" y1="865" x2="437" y2="865" style="stroke:rgb(0,0,0);stroke-width:1"/>
    <line x1="419" y1="660" x2="429" y2="660" style="stroke:rgb(0,0,0);stroke-width:1;stroke-linecap:round"/>
    <line x1="419" y1="712" x2="429" y2="712" style="stroke:rgb(0,0,0);stroke-width:1;stroke-linecap:round"/>
    <line x1="419" y1="764" x2="429" y2="764" style="stroke:rgb(0,0,0);stroke-width:1;stroke-linecap:round"/>
    <line x1="419" y1="816" x2="429" y2="816" style="stroke:rgb(0,0,0);stroke-width:1;stroke-linecap:round"/>
    <line x1="419" y1="868" x2="429" y2="868" style="stroke:rgb(0,0,0);stroke-width:1;stroke-linecap:round"/>
    <line x1="419" y1="660" x2="419" y2="868" style="stroke:rgb(0,0,0);stroke-width:1;stroke-linecap:round"/>
    <line x1="409" y1="764" x2="419" y2="764" style="stroke:rgb(0,0,0);stroke-width:1;stroke-linecap:round"/>
    <path d="M375 754 L398 754 L404 760 L404 768 L398 774 L375 774 L369 768 L369 760 Z"
          style="fill:rgb(255,255,255);stroke:rgb(0,0,0);stroke-width:1"/>
    <line x1="372" y1="764" x2="401" y2="764" style="stroke:rgb(0,0,0);stroke-width:1"/>
    <ellipse cx="381" cy="764" rx="2" ry="2" style="rgb(0,0,0)"/>
    <ellipse cx="386" cy="764" rx="2" ry="2" style="rgb(0,0,0)"/>
    <ellipse cx="391" cy="764" rx="2" ry="2" style="rgb(0,0,0)"/>
    <rect x="399" y="759" width="10" height="10" style="fill:rgb(255,255,255);stroke:rgb(0,0,0);stroke-width:1"/>
    <line x1="401" y1="764" x2="407" y2="764" style="stroke:rgb(0,0,0);stroke-width:1"/>
    <line x1="349" y1="764" x2="369" y2="764" style="stroke:rgb(0,0,0);stroke-width:1;stroke-linecap:round"/>
    <a href="administrativeData/dccSoftware.html">
        <rect x="267" y="753" width="77" height="22"
              style="fill:rgb(255,255,255);stroke:rgb(0,0,0);stroke-width:1;stroke-dasharray:4,1"/>
        <text x="305.5" y="764"
              style="font-family:Arial;font-size:8pt;fill:rgb(0,0,0);font-weight:bold;text-anchor:middle;dominant-baseline:central">
            document
        </text>
    </a>
    <rect x="339" y="759" width="10" height="10" style="fill:rgb(255,255,255);stroke:rgb(0,0,0);stroke-width:1"/>
    <line x1="341" y1="764" x2="347" y2="764" style="stroke:rgb(0,0,0);stroke-width:1"/>
    <line x1="257" y1="192" x2="267" y2="192" style="stroke:rgb(0,0,0);stroke-width:1;stroke-linecap:round"/>
    <line x1="257" y1="478" x2="267" y2="478" style="stroke:rgb(0,0,0);stroke-width:1;stroke-linecap:round"/>
    <line x1="257" y1="608" x2="267" y2="608" style="stroke:rgb(0,0,0);stroke-width:1;stroke-linecap:round"/>
    <line x1="257" y1="764" x2="267" y2="764" style="stroke:rgb(0,0,0);stroke-width:1;stroke-linecap:round"/>
    <line x1="257" y1="192" x2="257" y2="764" style="stroke:rgb(0,0,0);stroke-width:1;stroke-linecap:round"/>
    <line x1="247" y1="452" x2="257" y2="452" style="stroke:rgb(0,0,0);stroke-width:1;stroke-linecap:round"/>
    <path d="M213 442 L236 442 L242 448 L242 456 L236 462 L213 462 L207 456 L207 448 Z"
          style="fill:rgb(255,255,255);stroke:rgb(0,0,0);stroke-width:1"/>
    <line x1="210" y1="452" x2="239" y2="452" style="stroke:rgb(0,0,0);stroke-width:1"/>
    <ellipse cx="219" cy="452" rx="2" ry="2" style="rgb(0,0,0)"/>
    <ellipse cx="224" cy="452" rx="2" ry="2" style="rgb(0,0,0)"/>
    <ellipse cx="229" cy="452" rx="2" ry="2" style="rgb(0,0,0)"/>
    <rect x="237" y="447" width="10" height="10" style="fill:rgb(255,255,255);stroke:rgb(0,0,0);stroke-width:1"/>
    <line x1="239" y1="452" x2="245" y2="452" style="stroke:rgb(0,0,0);stroke-width:1"/>
    <line x1="187" y1="452" x2="207" y2="452" style="stroke:rgb(0,0,0);stroke-width:1;stroke-linecap:round"/>
    <a href="rootelement.html">
        <rect x="20" y="441" width="162" height="22" style="fill:rgb(255,255,255);stroke:rgb(0,0,0);stroke-width:1"/>
        <text x="101" y="452"
              style="font-family:Arial;font-size:8pt;fill:rgb(0,0,0);font-weight:bold;text-anchor:middle;dominant-baseline:central">
            digitalCalibrationCertificate
        </text>
    </a>
    <rect x="177" y="447" width="10" height="10" style="fill:rgb(255,255,255);stroke:rgb(0,0,0);stroke-width:1"/>
    <line x1="179" y1="452" x2="185" y2="452" style="stroke:rgb(0,0,0);stroke-width:1"/>
</svg>
    